<svg width="128" height="128" viewBox="0 0 128 128" fill="none" xmlns="http://www.w3.org/2000/svg">
<path d="M64 0C28.8 0 0 28.8 0 64C0 99.2 28.8 128 64 128C99.2 128 128 99.2 128 64C128 28.8 99.2 0 64 0ZM64 21.3333C75.7333 21.3333 85.3333 33.0667 85.3333 48C85.3333 62.9333 75.7333 74.6667 64 74.6667C52.2667 74.6667 42.6667 62.9333 42.6667 48C42.6667 33.0667 52.2667 21.3333 64 21.3333ZM99.2 104C90.1333 112 77.3333 117.333 64 117.333C50.6667 117.333 37.8667 112 28.8 104C26.6667 101.867 26.1333 98.6667 28.2667 96.5333C34.1333 89.6 42.1333 84.8 50.6667 82.1333C54.9333 84.2667 59.2 85.3333 64 85.3333C68.8 85.3333 73.0667 84.2667 77.3333 82.1333C86.4 84.8 93.8667 89.6 99.7333 96.5333C101.867 98.6667 101.867 101.867 99.2 104Z" fill="currentColor"/>
</svg>
