<svg width="200" height="200" viewBox="0 0 200 200" fill="none" xmlns="http://www.w3.org/2000/svg">
<circle cx="100" cy="100" r="100" fill="url(#paint0_linear)"/>
<g filter="url(#filter0_di)">
<path d="M152.744 82.3908H118.006C117.148 82.3908 116.498 81.6108 116.654 80.7787L122.712 46.145C123.934 39.1247 115.016 35.0425 110.518 40.5807L98.0629 55.9475C97.4129 56.7535 96.4249 57.2215 95.3848 57.2215H81.6561C77.4439 57.2215 74.0378 60.6277 74.0378 64.8399C74.0378 69.0521 77.4439 72.4583 81.6561 72.4583H83.5542L83.7102 72.4843C86.4924 72.5623 88.7285 74.8244 88.7285 77.6325C88.7285 80.4927 86.4144 82.8068 83.5542 82.8068H45.6184C41.4062 82.8068 38 86.213 38 90.4252C38 94.6374 41.4062 98.0436 45.6184 98.0436H64.4173C67.2774 98.0436 69.5915 100.358 69.5915 103.218C69.5915 106.078 67.2774 108.392 64.4173 108.392H57.865C53.6528 108.392 50.2466 111.798 50.2466 116.01C50.2466 118.351 51.3647 120.379 53.0287 121.783C53.5228 122.225 54.0688 122.615 54.6928 122.901C54.8228 122.953 54.9268 123.005 55.0308 123.057C55.8369 123.395 56.6949 123.629 57.657 123.629H57.839H68.1615H92.3947C93.2527 123.629 93.9027 124.409 93.7467 125.241L87.6884 159.875C86.4664 166.895 95.3848 170.951 99.883 165.413L158.1 93.6493C161.766 89.1511 158.568 82.3908 152.744 82.3908Z" fill="url(#paint1_linear)"/>
</g>
<defs>
<filter id="filter0_di" x="23" y="25" width="151.661" height="160" filterUnits="userSpaceOnUse" color-interpolation-filters="sRGB">
<feFlood flood-opacity="0" result="BackgroundImageFix"/>
<feColorMatrix in="SourceAlpha" type="matrix" values="0 0 0 0 0 0 0 0 0 0 0 0 0 0 0 0 0 0 127 0"/>
<feOffset dy="2"/>
<feGaussianBlur stdDeviation="7.5"/>
<feColorMatrix type="matrix" values="0 0 0 0 0 0 0 0 0 0 0 0 0 0 0 0 0 0 0.1 0"/>
<feBlend mode="normal" in2="BackgroundImageFix" result="effect1_dropShadow"/>
<feBlend mode="normal" in="SourceGraphic" in2="effect1_dropShadow" result="shape"/>
<feColorMatrix in="SourceAlpha" type="matrix" values="0 0 0 0 0 0 0 0 0 0 0 0 0 0 0 0 0 0 127 0" result="hardAlpha"/>
<feOffset dy="2"/>
<feGaussianBlur stdDeviation="3"/>
<feComposite in2="hardAlpha" operator="arithmetic" k2="-1" k3="1"/>
<feColorMatrix type="matrix" values="0 0 0 0 1 0 0 0 0 1 0 0 0 0 1 0 0 0 1 0"/>
<feBlend mode="normal" in2="shape" result="effect2_innerShadow"/>
</filter>
<linearGradient id="paint0_linear" x1="0" y1="100" x2="200" y2="100" gradientUnits="userSpaceOnUse">
<stop stop-color="#2DCC8E"/>
<stop offset="1" stop-color="#45A8FF"/>
</linearGradient>
<linearGradient id="paint1_linear" x1="98.8306" y1="38" x2="98.8306" y2="168" gradientUnits="userSpaceOnUse">
<stop stop-color="white"/>
<stop offset="1" stop-color="#D6FFFD"/>
</linearGradient>
</defs>
</svg>
